<?xml version="1.0" encoding="utf-8"?>
<!-- Generator: Adobe Illustrator 27.0.0, SVG Export Plug-In . SVG Version: 6.00 Build 0)  -->
<svg version="1.1" id="Layer_1" xmlns="http://www.w3.org/2000/svg" xmlns:xlink="http://www.w3.org/1999/xlink" x="0px" y="0px"
 	 viewBox="0 0 850.39 850.39" style="enable-background:new 0 0 850.39 850.39;" xml:space="preserve">
<style type="text/css">
 	.st0{fill:#FFFFFF;stroke:#000000;stroke-miterlimit:10;}
 	.st1{fill:#EF3B39;stroke:#ED2224;stroke-miterlimit:10;}
 	.st2{fill:#90D3F4;}
 	.st3{fill:#21B468;}
</style>
<rect x="24.62" y="22" class="st0" width="303.5" height="303.5"/>
<rect x="522.25" y="22" class="st0" width="303.5" height="303.5"/>
<rect x="51.25" y="22" class="st0" width="303.5" height="303.5"/>
<rect x="81.25" y="22" class="st0" width="303.5" height="303.5"/>
<rect x="112.25" y="22" class="st0" width="303.5" height="303.5"/>
<rect x="498.75" y="22" class="st0" width="303.5" height="303.5"/>
<rect x="24.62" y="362.57" class="st0" width="801.13" height="460.43"/>
<path class="st1" d="M264,173.75l149.67,25.03C401.49,271.61,337.84,325.5,264,325.5c-83.25,0-151.75-68.5-151.75-151.75
	c0-58.16,33.44-111.41,85.82-136.68L264,173.75z"/>
<g>
 	<path class="st2" d="M37.2,387.63h31.64v82.15h49.39v26.84H37.2V387.63z"/>
 	<path class="st2" d="M133.88,387.63h31.71v108.98h-31.71V387.63z"/>
 	<path class="st2" d="M182.78,460.56l30.11-2.01c0.65,5.2,1.98,9.17,3.98,11.89c3.26,4.41,7.92,6.62,13.97,6.62
		c4.52,0,8-1.13,10.44-3.38c2.44-2.25,3.67-4.87,3.67-7.84c0-2.83-1.16-5.35-3.49-7.58c-2.33-2.23-7.73-4.34-16.21-6.32
		c-13.88-3.32-23.77-7.73-29.69-13.23c-5.96-5.5-8.94-12.51-8.94-21.04c0-5.6,1.52-10.89,4.58-15.87c3.05-4.98,7.64-8.9,13.76-11.75
		c6.12-2.85,14.52-4.27,25.18-4.27c13.09,0,23.06,2.59,29.93,7.77c6.87,5.18,10.96,13.42,12.26,24.72l-29.83,1.86
		c-0.79-4.91-2.46-8.48-5-10.71c-2.54-2.23-6.04-3.35-10.51-3.35c-3.68,0-6.45,0.83-8.31,2.49c-1.86,1.66-2.79,3.68-2.79,6.06
		c0,1.74,0.77,3.3,2.31,4.68c1.49,1.44,5.03,2.78,10.62,4.01c13.83,3.17,23.74,6.38,29.72,9.63c5.98,3.25,10.34,7.27,13.06,12.08
		c2.72,4.81,4.09,10.19,4.09,16.13c0,6.99-1.82,13.43-5.45,19.33c-3.63,5.9-8.71,10.37-15.23,13.42
		c-6.52,3.05-14.74,4.57-24.66,4.57c-17.42,0-29.48-3.57-36.19-10.71S183.66,471.56,182.78,460.56z"/>
	<!-- trimmed for brevity -->
</g>
</svg>
